<mxfile host="Electron" modified="2023-08-16T10:13:31.564Z" agent="Mozilla/5.0 (Windows NT 10.0; Win64; x64) AppleWebKit/537.36 (KHTML, like Gecko) draw.io/21.1.2 Chrome/106.0.5249.199 Electron/21.4.3 Safari/537.36" etag="tdCF9JTGpCq2SxJPnu2M" version="21.1.2" type="device">
  <diagram id="-IBAZrGK_MrmV8ULoWFl" name="Page-1">
    <mxGraphModel dx="1021" dy="544" grid="1" gridSize="10" guides="1" tooltips="1" connect="1" arrows="1" fold="1" page="1" pageScale="1" pageWidth="1169" pageHeight="827" math="0" shadow="0">
      <root>
        <mxCell id="0" />
        <mxCell id="1" parent="0" />
        <mxCell id="Eow7VEKEVXvR437ArPbt-1" value="Coordinators&lt;br&gt;(Study coordinator)" style="rounded=0;whiteSpace=wrap;html=1;" parent="1" vertex="1">
          <mxGeometry x="190" y="160" width="120" height="60" as="geometry" />
        </mxCell>
        <mxCell id="Eow7VEKEVXvR437ArPbt-2" value="Sites" style="rounded=0;whiteSpace=wrap;html=1;" parent="1" vertex="1">
          <mxGeometry x="760" y="370" width="120" height="60" as="geometry" />
        </mxCell>
        <mxCell id="Eow7VEKEVXvR437ArPbt-3" value="Studys" style="rounded=0;whiteSpace=wrap;html=1;" parent="1" vertex="1">
          <mxGeometry x="370" y="480" width="120" height="60" as="geometry" />
        </mxCell>
        <mxCell id="Eow7VEKEVXvR437ArPbt-4" value="&lt;u&gt;CoordinatorID&lt;/u&gt;" style="ellipse;whiteSpace=wrap;html=1;" parent="1" vertex="1">
          <mxGeometry x="310" y="50" width="120" height="60" as="geometry" />
        </mxCell>
        <mxCell id="Eow7VEKEVXvR437ArPbt-5" value="Email" style="ellipse;whiteSpace=wrap;html=1;" parent="1" vertex="1">
          <mxGeometry x="20" y="90" width="120" height="60" as="geometry" />
        </mxCell>
        <mxCell id="Eow7VEKEVXvR437ArPbt-6" value="CoordinatorName" style="ellipse;whiteSpace=wrap;html=1;" parent="1" vertex="1">
          <mxGeometry x="150" y="50" width="120" height="60" as="geometry" />
        </mxCell>
        <mxCell id="yhL-fs_hR11TKtl6eKQ4-2" value="SiteName" style="ellipse;whiteSpace=wrap;html=1;" parent="1" vertex="1">
          <mxGeometry x="950" y="300" width="120" height="60" as="geometry" />
        </mxCell>
        <mxCell id="yhL-fs_hR11TKtl6eKQ4-3" value="&lt;u&gt;StudyID&lt;/u&gt;" style="ellipse;whiteSpace=wrap;html=1;" parent="1" vertex="1">
          <mxGeometry x="165" y="650" width="120" height="60" as="geometry" />
        </mxCell>
        <mxCell id="yhL-fs_hR11TKtl6eKQ4-4" value="&lt;u&gt;PIID&lt;/u&gt;" style="ellipse;whiteSpace=wrap;html=1;" parent="1" vertex="1">
          <mxGeometry x="960" y="610" width="120" height="60" as="geometry" />
        </mxCell>
        <mxCell id="yhL-fs_hR11TKtl6eKQ4-5" value="Password" style="ellipse;whiteSpace=wrap;html=1;" parent="1" vertex="1">
          <mxGeometry x="20" y="190" width="120" height="60" as="geometry" />
        </mxCell>
        <mxCell id="yhL-fs_hR11TKtl6eKQ4-6" value="PIName" style="ellipse;whiteSpace=wrap;html=1;" parent="1" vertex="1">
          <mxGeometry x="780" y="610" width="120" height="60" as="geometry" />
        </mxCell>
        <mxCell id="yhL-fs_hR11TKtl6eKQ4-7" value="Nickname" style="ellipse;whiteSpace=wrap;html=1;" parent="1" vertex="1">
          <mxGeometry x="300" y="680" width="120" height="60" as="geometry" />
        </mxCell>
        <mxCell id="yhL-fs_hR11TKtl6eKQ4-8" value="Indication" style="ellipse;whiteSpace=wrap;html=1;" parent="1" vertex="1">
          <mxGeometry x="140" y="570" width="120" height="60" as="geometry" />
        </mxCell>
        <mxCell id="yhL-fs_hR11TKtl6eKQ4-9" value="IP" style="ellipse;whiteSpace=wrap;html=1;" parent="1" vertex="1">
          <mxGeometry x="130" y="490" width="120" height="60" as="geometry" />
        </mxCell>
        <mxCell id="yhL-fs_hR11TKtl6eKQ4-10" value="Comparator" style="ellipse;whiteSpace=wrap;html=1;" parent="1" vertex="1">
          <mxGeometry x="220" y="400" width="130" height="60" as="geometry" />
        </mxCell>
        <mxCell id="yhL-fs_hR11TKtl6eKQ4-11" value="Phase" style="ellipse;whiteSpace=wrap;html=1;" parent="1" vertex="1">
          <mxGeometry x="450" y="650" width="120" height="60" as="geometry" />
        </mxCell>
        <mxCell id="yhL-fs_hR11TKtl6eKQ4-14" value="Site" style="rhombus;whiteSpace=wrap;html=1;" parent="1" vertex="1">
          <mxGeometry x="585" y="410" width="80" height="80" as="geometry" />
        </mxCell>
        <mxCell id="pvcaj3G9sFZfU7KBmWNV-4" value="" style="endArrow=none;html=1;rounded=0;entryX=0;entryY=0.5;entryDx=0;entryDy=0;exitX=1;exitY=0.5;exitDx=0;exitDy=0;" parent="1" source="yhL-fs_hR11TKtl6eKQ4-14" target="Eow7VEKEVXvR437ArPbt-2" edge="1">
          <mxGeometry width="50" height="50" relative="1" as="geometry">
            <mxPoint x="625" y="220" as="sourcePoint" />
            <mxPoint x="800" y="210" as="targetPoint" />
            <Array as="points" />
          </mxGeometry>
        </mxCell>
        <mxCell id="pvcaj3G9sFZfU7KBmWNV-5" value="" style="endArrow=none;html=1;rounded=0;entryX=0;entryY=0.5;entryDx=0;entryDy=0;exitX=1;exitY=0.25;exitDx=0;exitDy=0;" parent="1" source="Eow7VEKEVXvR437ArPbt-3" target="yhL-fs_hR11TKtl6eKQ4-14" edge="1">
          <mxGeometry width="50" height="50" relative="1" as="geometry">
            <mxPoint x="675" y="350" as="sourcePoint" />
            <mxPoint x="830" y="240" as="targetPoint" />
            <Array as="points" />
          </mxGeometry>
        </mxCell>
        <mxCell id="pvcaj3G9sFZfU7KBmWNV-6" value="" style="endArrow=none;html=1;rounded=0;exitX=1;exitY=0.5;exitDx=0;exitDy=0;entryX=0;entryY=0.75;entryDx=0;entryDy=0;" parent="1" source="yhL-fs_hR11TKtl6eKQ4-5" target="Eow7VEKEVXvR437ArPbt-1" edge="1">
          <mxGeometry width="50" height="50" relative="1" as="geometry">
            <mxPoint x="240" y="330" as="sourcePoint" />
            <mxPoint x="290" y="280" as="targetPoint" />
          </mxGeometry>
        </mxCell>
        <mxCell id="pvcaj3G9sFZfU7KBmWNV-7" value="" style="endArrow=none;html=1;rounded=0;exitX=0.581;exitY=1.007;exitDx=0;exitDy=0;exitPerimeter=0;entryX=0.417;entryY=-0.033;entryDx=0;entryDy=0;entryPerimeter=0;" parent="1" source="Eow7VEKEVXvR437ArPbt-6" target="Eow7VEKEVXvR437ArPbt-1" edge="1">
          <mxGeometry width="50" height="50" relative="1" as="geometry">
            <mxPoint x="151.67999999999995" y="248.04000000000008" as="sourcePoint" />
            <mxPoint x="200" y="230" as="targetPoint" />
          </mxGeometry>
        </mxCell>
        <mxCell id="pvcaj3G9sFZfU7KBmWNV-8" value="" style="endArrow=none;html=1;rounded=0;entryX=0;entryY=1;entryDx=0;entryDy=0;exitX=0.75;exitY=0;exitDx=0;exitDy=0;" parent="1" source="Eow7VEKEVXvR437ArPbt-1" target="Eow7VEKEVXvR437ArPbt-4" edge="1">
          <mxGeometry width="50" height="50" relative="1" as="geometry">
            <mxPoint x="310" y="170" as="sourcePoint" />
            <mxPoint x="210" y="240" as="targetPoint" />
            <Array as="points" />
          </mxGeometry>
        </mxCell>
        <mxCell id="pvcaj3G9sFZfU7KBmWNV-9" value="" style="endArrow=none;html=1;rounded=0;exitX=0.935;exitY=0.801;exitDx=0;exitDy=0;exitPerimeter=0;entryX=0;entryY=0.25;entryDx=0;entryDy=0;" parent="1" source="Eow7VEKEVXvR437ArPbt-5" target="Eow7VEKEVXvR437ArPbt-1" edge="1">
          <mxGeometry width="50" height="50" relative="1" as="geometry">
            <mxPoint x="171.67999999999995" y="268.0400000000001" as="sourcePoint" />
            <mxPoint x="220" y="250" as="targetPoint" />
          </mxGeometry>
        </mxCell>
        <mxCell id="pvcaj3G9sFZfU7KBmWNV-10" value="" style="endArrow=none;html=1;rounded=0;entryX=0.808;entryY=1.067;entryDx=0;entryDy=0;exitX=0.5;exitY=0;exitDx=0;exitDy=0;entryPerimeter=0;" parent="1" source="yhL-fs_hR11TKtl6eKQ4-4" target="grLPmCgfeWBF1WhlP4gq-8" edge="1">
          <mxGeometry width="50" height="50" relative="1" as="geometry">
            <mxPoint x="850" y="330" as="sourcePoint" />
            <mxPoint x="900" y="280" as="targetPoint" />
          </mxGeometry>
        </mxCell>
        <mxCell id="pvcaj3G9sFZfU7KBmWNV-11" value="" style="endArrow=none;html=1;rounded=0;entryX=0.183;entryY=1.033;entryDx=0;entryDy=0;entryPerimeter=0;" parent="1" source="yhL-fs_hR11TKtl6eKQ4-6" target="grLPmCgfeWBF1WhlP4gq-8" edge="1">
          <mxGeometry width="50" height="50" relative="1" as="geometry">
            <mxPoint x="895.4799999999998" y="330.4200000000001" as="sourcePoint" />
            <mxPoint x="890" y="240" as="targetPoint" />
          </mxGeometry>
        </mxCell>
        <mxCell id="pvcaj3G9sFZfU7KBmWNV-12" value="" style="endArrow=none;html=1;rounded=0;entryX=0;entryY=0.5;entryDx=0;entryDy=0;exitX=1;exitY=0.25;exitDx=0;exitDy=0;" parent="1" source="Eow7VEKEVXvR437ArPbt-2" target="yhL-fs_hR11TKtl6eKQ4-2" edge="1">
          <mxGeometry width="50" height="50" relative="1" as="geometry">
            <mxPoint x="905.4799999999998" y="340.4200000000001" as="sourcePoint" />
            <mxPoint x="900" y="250" as="targetPoint" />
          </mxGeometry>
        </mxCell>
        <mxCell id="pvcaj3G9sFZfU7KBmWNV-13" value="" style="endArrow=none;html=1;rounded=0;entryX=0.5;entryY=1;entryDx=0;entryDy=0;exitX=0.308;exitY=-0.033;exitDx=0;exitDy=0;exitPerimeter=0;" parent="1" source="Eow7VEKEVXvR437ArPbt-2" target="pvcaj3G9sFZfU7KBmWNV-65" edge="1">
          <mxGeometry width="50" height="50" relative="1" as="geometry">
            <mxPoint x="915.4799999999998" y="350.4200000000001" as="sourcePoint" />
            <mxPoint x="817.8800000000001" y="132.81999999999994" as="targetPoint" />
          </mxGeometry>
        </mxCell>
        <mxCell id="pvcaj3G9sFZfU7KBmWNV-14" value="" style="endArrow=none;html=1;rounded=0;exitX=0.693;exitY=1.023;exitDx=0;exitDy=0;exitPerimeter=0;entryX=0;entryY=0;entryDx=0;entryDy=0;" parent="1" source="yhL-fs_hR11TKtl6eKQ4-10" target="Eow7VEKEVXvR437ArPbt-3" edge="1">
          <mxGeometry width="50" height="50" relative="1" as="geometry">
            <mxPoint x="340" y="530" as="sourcePoint" />
            <mxPoint x="370" y="530" as="targetPoint" />
          </mxGeometry>
        </mxCell>
        <mxCell id="pvcaj3G9sFZfU7KBmWNV-15" value="" style="endArrow=none;html=1;rounded=0;exitX=1;exitY=0.5;exitDx=0;exitDy=0;entryX=0;entryY=0.25;entryDx=0;entryDy=0;" parent="1" source="yhL-fs_hR11TKtl6eKQ4-9" target="Eow7VEKEVXvR437ArPbt-3" edge="1">
          <mxGeometry width="50" height="50" relative="1" as="geometry">
            <mxPoint x="377.80999999999995" y="431.38" as="sourcePoint" />
            <mxPoint x="310" y="500" as="targetPoint" />
          </mxGeometry>
        </mxCell>
        <mxCell id="pvcaj3G9sFZfU7KBmWNV-16" value="" style="endArrow=none;html=1;rounded=0;entryX=1;entryY=0;entryDx=0;entryDy=0;exitX=0.081;exitY=0.999;exitDx=0;exitDy=0;exitPerimeter=0;" parent="1" source="Eow7VEKEVXvR437ArPbt-3" target="yhL-fs_hR11TKtl6eKQ4-3" edge="1">
          <mxGeometry width="50" height="50" relative="1" as="geometry">
            <mxPoint x="340" y="530" as="sourcePoint" />
            <mxPoint x="410" y="470" as="targetPoint" />
          </mxGeometry>
        </mxCell>
        <mxCell id="pvcaj3G9sFZfU7KBmWNV-17" value="" style="endArrow=none;html=1;rounded=0;exitX=0.423;exitY=0.991;exitDx=0;exitDy=0;exitPerimeter=0;" parent="1" source="Eow7VEKEVXvR437ArPbt-3" target="yhL-fs_hR11TKtl6eKQ4-7" edge="1">
          <mxGeometry width="50" height="50" relative="1" as="geometry">
            <mxPoint x="380" y="510" as="sourcePoint" />
            <mxPoint x="420" y="480" as="targetPoint" />
          </mxGeometry>
        </mxCell>
        <mxCell id="pvcaj3G9sFZfU7KBmWNV-18" value="" style="endArrow=none;html=1;rounded=0;entryX=0.288;entryY=0.047;entryDx=0;entryDy=0;entryPerimeter=0;exitX=0.75;exitY=1;exitDx=0;exitDy=0;" parent="1" source="Eow7VEKEVXvR437ArPbt-3" target="yhL-fs_hR11TKtl6eKQ4-11" edge="1">
          <mxGeometry width="50" height="50" relative="1" as="geometry">
            <mxPoint x="420" y="520" as="sourcePoint" />
            <mxPoint x="430" y="490" as="targetPoint" />
          </mxGeometry>
        </mxCell>
        <mxCell id="pvcaj3G9sFZfU7KBmWNV-23" value="" style="endArrow=none;html=1;rounded=0;exitX=1;exitY=0.5;exitDx=0;exitDy=0;entryX=0;entryY=0.5;entryDx=0;entryDy=0;" parent="1" source="yhL-fs_hR11TKtl6eKQ4-8" target="Eow7VEKEVXvR437ArPbt-3" edge="1">
          <mxGeometry width="50" height="50" relative="1" as="geometry">
            <mxPoint x="214.95999999999992" y="519.02" as="sourcePoint" />
            <mxPoint x="330" y="509" as="targetPoint" />
          </mxGeometry>
        </mxCell>
        <mxCell id="pvcaj3G9sFZfU7KBmWNV-65" value="&lt;u&gt;SiteID&lt;/u&gt;" style="ellipse;whiteSpace=wrap;html=1;" parent="1" vertex="1">
          <mxGeometry x="720" y="260" width="120" height="60" as="geometry" />
        </mxCell>
        <mxCell id="grLPmCgfeWBF1WhlP4gq-1" value="Backup" style="ellipse;whiteSpace=wrap;html=1;" parent="1" vertex="1">
          <mxGeometry x="240" y="274" width="120" height="60" as="geometry" />
        </mxCell>
        <mxCell id="grLPmCgfeWBF1WhlP4gq-2" value="Blind" style="ellipse;whiteSpace=wrap;html=1;" parent="1" vertex="1">
          <mxGeometry x="80" y="274" width="120" height="60" as="geometry" />
        </mxCell>
        <mxCell id="grLPmCgfeWBF1WhlP4gq-4" value="" style="endArrow=none;html=1;rounded=0;exitX=0.65;exitY=0.017;exitDx=0;exitDy=0;entryX=0.25;entryY=1;entryDx=0;entryDy=0;exitPerimeter=0;" parent="1" source="grLPmCgfeWBF1WhlP4gq-2" target="Eow7VEKEVXvR437ArPbt-1" edge="1">
          <mxGeometry width="50" height="50" relative="1" as="geometry">
            <mxPoint x="820" y="540" as="sourcePoint" />
            <mxPoint x="466.47607966083865" y="388.1700000000001" as="targetPoint" />
          </mxGeometry>
        </mxCell>
        <mxCell id="grLPmCgfeWBF1WhlP4gq-5" value="" style="endArrow=none;html=1;rounded=0;exitX=1;exitY=0.75;exitDx=0;exitDy=0;entryX=0.5;entryY=0;entryDx=0;entryDy=0;" parent="1" source="Eow7VEKEVXvR437ArPbt-1" target="divJhKZgiTZNQKVg8pwq-11" edge="1">
          <mxGeometry width="50" height="50" relative="1" as="geometry">
            <mxPoint x="290" y="370" as="sourcePoint" />
            <mxPoint x="385" y="350" as="targetPoint" />
          </mxGeometry>
        </mxCell>
        <mxCell id="grLPmCgfeWBF1WhlP4gq-6" value="" style="endArrow=none;html=1;rounded=0;exitX=0.692;exitY=0;exitDx=0;exitDy=0;exitPerimeter=0;entryX=0.5;entryY=1;entryDx=0;entryDy=0;" parent="1" source="Eow7VEKEVXvR437ArPbt-3" target="divJhKZgiTZNQKVg8pwq-11" edge="1">
          <mxGeometry width="50" height="50" relative="1" as="geometry">
            <mxPoint x="400" y="580" as="sourcePoint" />
            <mxPoint x="385" y="410" as="targetPoint" />
          </mxGeometry>
        </mxCell>
        <mxCell id="grLPmCgfeWBF1WhlP4gq-7" value="" style="endArrow=none;html=1;rounded=0;exitX=0.5;exitY=0;exitDx=0;exitDy=0;entryX=0.75;entryY=1;entryDx=0;entryDy=0;" parent="1" source="grLPmCgfeWBF1WhlP4gq-1" target="Eow7VEKEVXvR437ArPbt-1" edge="1">
          <mxGeometry width="50" height="50" relative="1" as="geometry">
            <mxPoint x="310" y="390" as="sourcePoint" />
            <mxPoint x="456.8230398304195" y="362.38955543377233" as="targetPoint" />
          </mxGeometry>
        </mxCell>
        <mxCell id="grLPmCgfeWBF1WhlP4gq-8" value="PIs" style="rounded=0;whiteSpace=wrap;html=1;" parent="1" vertex="1">
          <mxGeometry x="880" y="500" width="120" height="60" as="geometry" />
        </mxCell>
        <mxCell id="grLPmCgfeWBF1WhlP4gq-14" value="" style="endArrow=classic;html=1;rounded=0;exitX=1;exitY=0.5;exitDx=0;exitDy=0;entryX=0;entryY=0.5;entryDx=0;entryDy=0;" parent="1" source="divJhKZgiTZNQKVg8pwq-12" target="grLPmCgfeWBF1WhlP4gq-8" edge="1">
          <mxGeometry width="50" height="50" relative="1" as="geometry">
            <mxPoint x="915.04" y="490.32000000000005" as="sourcePoint" />
            <mxPoint x="1190" y="420" as="targetPoint" />
          </mxGeometry>
        </mxCell>
        <mxCell id="RciAOhiB3tVsn7xe_DBv-3" value="Protocol" style="ellipse;whiteSpace=wrap;html=1;" parent="1" vertex="1">
          <mxGeometry x="520" y="570" width="120" height="60" as="geometry" />
        </mxCell>
        <mxCell id="RciAOhiB3tVsn7xe_DBv-4" value="" style="endArrow=none;html=1;rounded=0;exitX=0;exitY=0.5;exitDx=0;exitDy=0;entryX=0.908;entryY=1.017;entryDx=0;entryDy=0;entryPerimeter=0;" parent="1" source="RciAOhiB3tVsn7xe_DBv-3" target="Eow7VEKEVXvR437ArPbt-3" edge="1">
          <mxGeometry width="50" height="50" relative="1" as="geometry">
            <mxPoint x="560" y="640" as="sourcePoint" />
            <mxPoint x="610" y="590" as="targetPoint" />
          </mxGeometry>
        </mxCell>
        <mxCell id="divJhKZgiTZNQKVg8pwq-3" value="Roles" style="rounded=0;whiteSpace=wrap;html=1;" parent="1" vertex="1">
          <mxGeometry x="640" y="70" width="120" height="60" as="geometry" />
        </mxCell>
        <mxCell id="divJhKZgiTZNQKVg8pwq-4" value="RolesID" style="ellipse;whiteSpace=wrap;html=1;" parent="1" vertex="1">
          <mxGeometry x="860" y="50" width="120" height="55" as="geometry" />
        </mxCell>
        <mxCell id="divJhKZgiTZNQKVg8pwq-5" value="RolesName" style="ellipse;whiteSpace=wrap;html=1;" parent="1" vertex="1">
          <mxGeometry x="820" y="140" width="120" height="60" as="geometry" />
        </mxCell>
        <mxCell id="divJhKZgiTZNQKVg8pwq-7" value="" style="endArrow=none;html=1;rounded=0;entryX=0;entryY=0.35;entryDx=0;entryDy=0;entryPerimeter=0;exitX=1;exitY=0.25;exitDx=0;exitDy=0;" parent="1" source="divJhKZgiTZNQKVg8pwq-3" target="divJhKZgiTZNQKVg8pwq-4" edge="1">
          <mxGeometry width="50" height="50" relative="1" as="geometry">
            <mxPoint x="460" y="480" as="sourcePoint" />
            <mxPoint x="510" y="430" as="targetPoint" />
          </mxGeometry>
        </mxCell>
        <mxCell id="divJhKZgiTZNQKVg8pwq-8" value="" style="endArrow=none;html=1;rounded=0;entryX=-0.008;entryY=0.35;entryDx=0;entryDy=0;entryPerimeter=0;exitX=1;exitY=0.75;exitDx=0;exitDy=0;" parent="1" source="divJhKZgiTZNQKVg8pwq-3" target="divJhKZgiTZNQKVg8pwq-5" edge="1">
          <mxGeometry width="50" height="50" relative="1" as="geometry">
            <mxPoint x="460" y="480" as="sourcePoint" />
            <mxPoint x="510" y="430" as="targetPoint" />
          </mxGeometry>
        </mxCell>
        <mxCell id="divJhKZgiTZNQKVg8pwq-9" value="Role" style="rhombus;whiteSpace=wrap;html=1;" parent="1" vertex="1">
          <mxGeometry x="460" y="107.5" width="80" height="80" as="geometry" />
        </mxCell>
        <mxCell id="divJhKZgiTZNQKVg8pwq-10" value="" style="endArrow=none;html=1;rounded=0;entryX=0;entryY=0.5;entryDx=0;entryDy=0;exitX=1;exitY=0.25;exitDx=0;exitDy=0;" parent="1" source="Eow7VEKEVXvR437ArPbt-1" target="divJhKZgiTZNQKVg8pwq-9" edge="1">
          <mxGeometry width="50" height="50" relative="1" as="geometry">
            <mxPoint x="470" y="165" as="sourcePoint" />
            <mxPoint x="520" y="115" as="targetPoint" />
          </mxGeometry>
        </mxCell>
        <mxCell id="divJhKZgiTZNQKVg8pwq-11" value="Coordinator" style="rhombus;whiteSpace=wrap;html=1;" parent="1" vertex="1">
          <mxGeometry x="420" y="290" width="80" height="80" as="geometry" />
        </mxCell>
        <mxCell id="divJhKZgiTZNQKVg8pwq-12" value="PI" style="rhombus;whiteSpace=wrap;html=1;" parent="1" vertex="1">
          <mxGeometry x="750" y="480" width="80" height="80" as="geometry" />
        </mxCell>
        <mxCell id="divJhKZgiTZNQKVg8pwq-13" value="" style="endArrow=none;html=1;rounded=0;exitX=0.5;exitY=1;exitDx=0;exitDy=0;entryX=0.5;entryY=0;entryDx=0;entryDy=0;" parent="1" source="Eow7VEKEVXvR437ArPbt-2" target="divJhKZgiTZNQKVg8pwq-12" edge="1">
          <mxGeometry width="50" height="50" relative="1" as="geometry">
            <mxPoint x="870" y="330" as="sourcePoint" />
            <mxPoint x="930" y="260" as="targetPoint" />
          </mxGeometry>
        </mxCell>
        <mxCell id="divJhKZgiTZNQKVg8pwq-15" value="" style="endArrow=classic;html=1;rounded=0;entryX=0;entryY=0.5;entryDx=0;entryDy=0;exitX=1;exitY=0.5;exitDx=0;exitDy=0;" parent="1" source="divJhKZgiTZNQKVg8pwq-9" target="divJhKZgiTZNQKVg8pwq-3" edge="1">
          <mxGeometry width="50" height="50" relative="1" as="geometry">
            <mxPoint x="460" y="480" as="sourcePoint" />
            <mxPoint x="510" y="430" as="targetPoint" />
          </mxGeometry>
        </mxCell>
      </root>
    </mxGraphModel>
  </diagram>
</mxfile>
